<svg width="10" height="9" viewBox="0 0 10 9" fill="none" xmlns="http://www.w3.org/2000/svg">
<g clip-path="url(#clip0_97_555)">
<path fill-rule="evenodd" clip-rule="evenodd" d="M9.01029 1.46888C9.04376 1.50895 9.07031 1.55655 9.08843 1.60895C9.10655 1.66135 9.11588 1.71753 9.11588 1.77426C9.11588 1.831 9.10655 1.88718 9.08843 1.93958C9.07031 1.99198 9.04376 2.03958 9.01029 2.07965L3.97847 8.11827C3.94508 8.15844 3.90542 8.19031 3.86176 8.21205C3.81809 8.2338 3.77128 8.24499 3.724 8.24499C3.67673 8.24499 3.62992 8.2338 3.58625 8.21205C3.54259 8.19031 3.50293 8.15844 3.46954 8.11827L0.953632 5.09896C0.886143 5.01797 0.848228 4.90812 0.848228 4.79358C0.848228 4.67904 0.886143 4.56919 0.953632 4.4882C1.02112 4.4072 1.11265 4.3617 1.2081 4.3617C1.30354 4.3617 1.39508 4.4072 1.46256 4.4882L3.724 7.20299L8.50135 1.46888C8.53474 1.42871 8.5744 1.39685 8.61807 1.3751C8.66173 1.35336 8.70854 1.34216 8.75582 1.34216C8.80309 1.34216 8.84991 1.35336 8.89357 1.3751C8.93724 1.39685 8.9769 1.42871 9.01029 1.46888Z" fill="white"/>
</g>
<defs>
<clipPath id="clip0_97_555">
<rect width="8.62661" height="7.76395" fill="white" transform="translate(0.489273 0.912018)"/>
</clipPath>
</defs>
</svg>
