<svg width="32" height="32" viewBox="0 0 32 32" fill="none" xmlns="http://www.w3.org/2000/svg">
<rect width="32" height="32" rx="16" fill="#D3ECFB"/>
<path fill-rule="evenodd" clip-rule="evenodd" d="M10.375 9.5C10.375 6.3934 12.8934 3.875 16 3.875C19.1066 3.875 21.625 6.3934 21.625 9.5C21.625 12.6066 19.1066 15.125 16 15.125C12.8934 15.125 10.375 12.6066 10.375 9.5Z" fill="#24A0ED"/>
<path fill-rule="evenodd" clip-rule="evenodd" d="M5.6891 27.1317C5.78578 21.5195 10.365 17 16 17C21.6352 17 26.2145 21.5197 26.311 27.1321C26.3174 27.5043 26.103 27.845 25.7646 28.0002C22.7909 29.3647 19.4832 30.125 16.0004 30.125C12.5174 30.125 9.20934 29.3646 6.23545 27.9999C5.89711 27.8446 5.68269 27.5039 5.6891 27.1317Z" fill="#24A0ED"/>
</svg>
