<svg xmlns="http://www.w3.org/2000/svg" width="24" height="24" viewBox="0 0 71 55" fill="currentColor">
    <path d="M60.104 4.552A58.817 58.817 0 0046.852.8a41.264 41.264 0 00-1.984 4.073 55.28 55.28 0 00-16.733 0A41.026 41.026 0 0026.15.8 58.832 58.832 0 0012.89 4.552C2.527 20.221-.926 35.505.293 50.671a59.13 59.13 0 0017.695 3.578 42.406 42.406 0 003.652-5.94 37.478 37.478 0 01-5.825-2.787c.491-.368.973-.755 1.442-1.152a41.43 41.43 0 0036.09 0c.48.413.963.8 1.446 1.17a37.35 37.35 0 01-5.84 2.768c1.056 2.113 2.31 4.106 3.654 5.965a59.077 59.077 0 0017.695-3.578c1.23-15.187-2.2-30.47-12.569-46.12zM23.725 37.278c-3.545 0-6.444-3.25-6.444-7.243 0-3.993 2.873-7.243 6.444-7.243s6.47 3.25 6.444 7.243c0 3.993-2.873 7.243-6.444 7.243zm23.551 0c-3.545 0-6.444-3.25-6.444-7.243 0-3.993 2.873-7.243 6.444-7.243 3.57 0 6.47 3.25 6.444 7.243 0 3.993-2.874 7.243-6.444 7.243z"/>
</svg>
