<svg xmlns="http://www.w3.org/2000/svg" width="24" height="24" fill="currentColor" viewBox="0 0 24 24">
    <path d="M12 0.297C5.373 0.297 0 5.67 0 12.297c0 5.29 3.438 9.77 8.205 11.363.6.113.82-.26.82-.577v-2.234c-3.338.726-4.033-1.416-4.033-1.416-.546-1.387-1.333-1.756-1.333-1.756-1.089-.745.083-.729.083-.729 1.205.084 1.838 1.238 1.838 1.238 1.07 1.835 2.807 1.305 3.492.998.108-.775.418-1.305.762-1.605-2.665-.304-5.466-1.332-5.466-5.931 0-1.31.469-2.381 1.236-3.221-.124-.303-.536-1.523.117-3.176 0 0 1.008-.323 3.301 1.23a11.52 11.52 0 0 1 3.003-.404c1.018.004 2.042.137 3.003.404 2.291-1.553 3.297-1.23 3.297-1.23.655 1.653.243 2.873.119 3.176.77.84 1.235 1.911 1.235 3.221 0 4.61-2.803 5.624-5.475 5.921.43.37.823 1.102.823 2.222v3.293c0 .32.218.694.825.576C20.565 22.063 24 17.583 24 12.297 24 5.67 18.627.297 12 .297z"/>
</svg>
