<svg width="32" height="32" viewBox="0 0 32 32" fill="none" xmlns="http://www.w3.org/2000/svg">
<path d="M9.33333 7.00008C8.78105 7.00008 8.33333 7.4478 8.33333 8.00008C8.33333 8.55237 8.78105 9.00008 9.33333 9.00008H28C28.5523 9.00008 29 8.55237 29 8.00008C29 7.4478 28.5523 7.00008 28 7.00008H9.33333Z" fill="#092241"/>
<path d="M9.33333 15.0001C8.78105 15.0001 8.33333 15.4478 8.33333 16.0001C8.33333 16.5524 8.78105 17.0001 9.33333 17.0001H28C28.5523 17.0001 29 16.5524 29 16.0001C29 15.4478 28.5523 15.0001 28 15.0001H9.33333Z" fill="#092241"/>
<path d="M9.33333 23.0001C8.78105 23.0001 8.33333 23.4478 8.33333 24.0001C8.33333 24.5524 8.78105 25.0001 9.33333 25.0001H28C28.5523 25.0001 29 24.5524 29 24.0001C29 23.4478 28.5523 23.0001 28 23.0001H9.33333Z" fill="#092241"/>
<path d="M6.66667 16.0001C6.66667 16.7365 6.06971 17.3334 5.33333 17.3334C4.59695 17.3334 4 16.7365 4 16.0001C4 15.2637 4.59695 14.6667 5.33333 14.6667C6.06971 14.6667 6.66667 15.2637 6.66667 16.0001Z" fill="#092241"/>
<path d="M6.66667 8.00008C6.66667 8.73646 6.06971 9.33341 5.33333 9.33341C4.59695 9.33341 4 8.73646 4 8.00008C4 7.2637 4.59695 6.66675 5.33333 6.66675C6.06971 6.66675 6.66667 7.2637 6.66667 8.00008Z" fill="#092241"/>
<path d="M6.66667 24.0001C6.66667 24.7365 6.06971 25.3334 5.33333 25.3334C4.59695 25.3334 4 24.7365 4 24.0001C4 23.2637 4.59695 22.6667 5.33333 22.6667C6.06971 22.6667 6.66667 23.2637 6.66667 24.0001Z" fill="#092241"/>
</svg>
