<svg width="90" height="20" viewBox="0 0 90 20" fill="#adb5bd" xmlns="http://www.w3.org/2000/svg">
<rect x="0.5" y="0.5" width="89" height="19" rx="9.5" fill="#f1f3f5"/>
<rect x="0.5" y="0.5" width="89" height="19" rx="9.5" stroke="#213555"/>
<path d="M22.2129 6.43359L19.9219 15H18.9199L17.2207 9.23438C17.1699 9.07031 17.1211 8.90625 17.0742 8.74219C17.0312 8.57422 16.9902 8.41602 16.9512 8.26758C16.9121 8.11523 16.8789 7.98242 16.8516 7.86914C16.8281 7.75195 16.8105 7.66406 16.7988 7.60547C16.791 7.66406 16.7754 7.75 16.752 7.86328C16.7324 7.97656 16.7051 8.10742 16.6699 8.25586C16.6387 8.4043 16.5996 8.5625 16.5527 8.73047C16.5098 8.89844 16.4629 9.06836 16.4121 9.24023L14.7598 15H13.7578L11.4844 6.43359H12.5215L13.8984 11.8066C13.9453 11.9863 13.9883 12.1641 14.0273 12.3398C14.0703 12.5117 14.1074 12.6797 14.1387 12.8438C14.1738 13.0078 14.2051 13.168 14.2324 13.3242C14.2598 13.4805 14.2852 13.6328 14.3086 13.7812C14.3281 13.6289 14.3535 13.4707 14.3848 13.3066C14.416 13.1387 14.4492 12.9688 14.4844 12.7969C14.5234 12.625 14.5645 12.4512 14.6074 12.2754C14.6543 12.0996 14.7031 11.9238 14.7539 11.748L16.2949 6.43359H17.3203L18.9258 11.7891C18.9805 11.9727 19.0312 12.1543 19.0781 12.334C19.125 12.5137 19.166 12.6895 19.2012 12.8613C19.2402 13.0293 19.2734 13.1914 19.3008 13.3477C19.332 13.5 19.3594 13.6445 19.3828 13.7812C19.4102 13.5898 19.4434 13.3887 19.4824 13.1777C19.5215 12.9668 19.5664 12.7461 19.6172 12.5156C19.6719 12.2852 19.7305 12.0469 19.793 11.8008L21.1699 6.43359H22.2129ZM26.3379 8.46094C26.4668 8.46094 26.6016 8.46875 26.7422 8.48438C26.8828 8.49609 27.0078 8.51367 27.1172 8.53711L26.9941 9.43945C26.8887 9.41211 26.7715 9.39062 26.6426 9.375C26.5137 9.35938 26.3926 9.35156 26.2793 9.35156C26.0215 9.35156 25.7773 9.4043 25.5469 9.50977C25.3203 9.61133 25.1211 9.75977 24.9492 9.95508C24.7773 10.1465 24.6426 10.3789 24.5449 10.6523C24.4473 10.9219 24.3984 11.2227 24.3984 11.5547V15H23.4199V8.57812H24.2285L24.334 9.76172H24.375C24.5078 9.52344 24.668 9.30664 24.8555 9.11133C25.043 8.91211 25.2598 8.75391 25.5059 8.63672C25.7559 8.51953 26.0332 8.46094 26.3379 8.46094ZM29.3027 8.57812V15H28.3301V8.57812H29.3027ZM28.8281 6.17578C28.9883 6.17578 29.125 6.22852 29.2383 6.33398C29.3555 6.43555 29.4141 6.5957 29.4141 6.81445C29.4141 7.0293 29.3555 7.18945 29.2383 7.29492C29.125 7.40039 28.9883 7.45312 28.8281 7.45312C28.6602 7.45312 28.5195 7.40039 28.4062 7.29492C28.2969 7.18945 28.2422 7.0293 28.2422 6.81445C28.2422 6.5957 28.2969 6.43555 28.4062 6.33398C28.5195 6.22852 28.6602 6.17578 28.8281 6.17578ZM33.4395 14.3203C33.5996 14.3203 33.7637 14.3066 33.9316 14.2793C34.0996 14.252 34.2363 14.2188 34.3418 14.1797V14.9355C34.2285 14.9863 34.0703 15.0293 33.8672 15.0645C33.668 15.0996 33.4727 15.1172 33.2812 15.1172C32.9414 15.1172 32.6328 15.0586 32.3555 14.9414C32.0781 14.8203 31.8555 14.6172 31.6875 14.332C31.5234 14.0469 31.4414 13.6523 31.4414 13.1484V9.33984H30.5273V8.86523L31.4473 8.48438L31.834 7.08984H32.4199V8.57812H34.3008V9.33984H32.4199V13.1191C32.4199 13.5215 32.5117 13.8223 32.6953 14.0215C32.8828 14.2207 33.1309 14.3203 33.4395 14.3203ZM38.1152 8.46094C38.6621 8.46094 39.1309 8.58203 39.5215 8.82422C39.9121 9.06641 40.2109 9.40625 40.418 9.84375C40.625 10.2773 40.7285 10.7852 40.7285 11.3672V11.9707H36.293C36.3047 12.7246 36.4922 13.2988 36.8555 13.6934C37.2188 14.0879 37.7305 14.2852 38.3906 14.2852C38.7969 14.2852 39.1562 14.248 39.4688 14.1738C39.7812 14.0996 40.1055 13.9902 40.4414 13.8457V14.7012C40.1172 14.8457 39.7949 14.9512 39.4746 15.0176C39.1582 15.084 38.7832 15.1172 38.3496 15.1172C37.7324 15.1172 37.1934 14.9922 36.7324 14.7422C36.2754 14.4883 35.9199 14.1172 35.666 13.6289C35.4121 13.1406 35.2852 12.543 35.2852 11.8359C35.2852 11.1445 35.4004 10.5469 35.6309 10.043C35.8652 9.53516 36.1934 9.14453 36.6152 8.87109C37.041 8.59766 37.541 8.46094 38.1152 8.46094ZM38.1035 9.25781C37.584 9.25781 37.1699 9.42773 36.8613 9.76758C36.5527 10.1074 36.3691 10.582 36.3105 11.1914H39.709C39.7051 10.8086 39.6445 10.4727 39.5273 10.1836C39.4141 9.89062 39.2402 9.66406 39.0059 9.50391C38.7715 9.33984 38.4707 9.25781 38.1035 9.25781ZM47.9004 8.47266C48.666 8.47266 49.2344 8.64453 49.6055 8.98828C49.9766 9.33203 50.1621 9.88086 50.1621 10.6348V15H49.4531L49.2656 14.0508H49.2188C49.0391 14.2852 48.8516 14.4824 48.6562 14.6426C48.4609 14.7988 48.2344 14.918 47.9766 15C47.7227 15.0781 47.4102 15.1172 47.0391 15.1172C46.6484 15.1172 46.3008 15.0488 45.9961 14.9121C45.6953 14.7754 45.457 14.5684 45.2812 14.291C45.1094 14.0137 45.0234 13.6621 45.0234 13.2363C45.0234 12.5957 45.2773 12.1035 45.7852 11.7598C46.293 11.416 47.0664 11.2285 48.1055 11.1973L49.2129 11.1504V10.7578C49.2129 10.2031 49.0938 9.81445 48.8555 9.5918C48.6172 9.36914 48.2812 9.25781 47.8477 9.25781C47.5117 9.25781 47.1914 9.30664 46.8867 9.4043C46.582 9.50195 46.293 9.61719 46.0195 9.75L45.7207 9.01172C46.0098 8.86328 46.3418 8.73633 46.7168 8.63086C47.0918 8.52539 47.4863 8.47266 47.9004 8.47266ZM49.2012 11.8359L48.2227 11.877C47.4219 11.9082 46.8574 12.0391 46.5293 12.2695C46.2012 12.5 46.0371 12.8262 46.0371 13.248C46.0371 13.6152 46.1484 13.8867 46.3711 14.0625C46.5938 14.2383 46.8887 14.3262 47.2559 14.3262C47.8262 14.3262 48.293 14.168 48.6562 13.8516C49.0195 13.5352 49.2012 13.0605 49.2012 12.4277V11.8359ZM57.668 6.43359C58.7734 6.43359 59.5801 6.65039 60.0879 7.08398C60.5996 7.51367 60.8555 8.13086 60.8555 8.93555C60.8555 9.29883 60.7949 9.64453 60.6738 9.97266C60.5566 10.2969 60.3652 10.584 60.0996 10.834C59.834 11.0801 59.4844 11.2754 59.0508 11.4199C58.6211 11.5605 58.0938 11.6309 57.4688 11.6309H56.4258V15H55.4297V6.43359H57.668ZM57.5742 7.2832H56.4258V10.7754H57.3574C57.9043 10.7754 58.3594 10.7168 58.7227 10.5996C59.0898 10.4824 59.3652 10.293 59.5488 10.0312C59.7324 9.76562 59.8242 9.41406 59.8242 8.97656C59.8242 8.40625 59.6426 7.98242 59.2793 7.70508C58.916 7.42383 58.3477 7.2832 57.5742 7.2832ZM68.0391 11.7773C68.0391 12.3047 67.9707 12.7754 67.834 13.1895C67.6973 13.6035 67.5 13.9531 67.2422 14.2383C66.9844 14.5234 66.6719 14.7422 66.3047 14.8945C65.9414 15.043 65.5293 15.1172 65.0684 15.1172C64.6387 15.1172 64.2441 15.043 63.8848 14.8945C63.5293 14.7422 63.2207 14.5234 62.959 14.2383C62.7012 13.9531 62.5 13.6035 62.3555 13.1895C62.2148 12.7754 62.1445 12.3047 62.1445 11.7773C62.1445 11.0742 62.2637 10.4766 62.502 9.98438C62.7402 9.48828 63.0801 9.11133 63.5215 8.85352C63.9668 8.5918 64.4961 8.46094 65.1094 8.46094C65.6953 8.46094 66.207 8.5918 66.6445 8.85352C67.0859 9.11523 67.4277 9.49414 67.6699 9.99023C67.916 10.4824 68.0391 11.0781 68.0391 11.7773ZM63.1523 11.7773C63.1523 12.293 63.2207 12.7402 63.3574 13.1191C63.4941 13.498 63.7051 13.791 63.9902 13.998C64.2754 14.2051 64.6426 14.3086 65.0918 14.3086C65.5371 14.3086 65.9023 14.2051 66.1875 13.998C66.4766 13.791 66.6895 13.498 66.8262 13.1191C66.9629 12.7402 67.0312 12.293 67.0312 11.7773C67.0312 11.2656 66.9629 10.8242 66.8262 10.4531C66.6895 10.0781 66.4785 9.78906 66.1934 9.58594C65.9082 9.38281 65.5391 9.28125 65.0859 9.28125C64.418 9.28125 63.9277 9.50195 63.6152 9.94336C63.3066 10.3848 63.1523 10.9961 63.1523 11.7773ZM73.875 13.2422C73.875 13.6523 73.7715 13.998 73.5645 14.2793C73.3613 14.5566 73.0684 14.7656 72.6855 14.9062C72.3066 15.0469 71.8535 15.1172 71.3262 15.1172C70.877 15.1172 70.4883 15.082 70.1602 15.0117C69.832 14.9414 69.5449 14.8418 69.2988 14.7129V13.8164C69.5605 13.9453 69.873 14.0625 70.2363 14.168C70.5996 14.2734 70.9707 14.3262 71.3496 14.3262C71.9043 14.3262 72.3066 14.2363 72.5566 14.0566C72.8066 13.877 72.9316 13.6328 72.9316 13.3242C72.9316 13.1484 72.8809 12.9941 72.7793 12.8613C72.6816 12.7246 72.5156 12.5938 72.2812 12.4688C72.0469 12.3398 71.7227 12.1992 71.3086 12.0469C70.8984 11.8906 70.543 11.7363 70.2422 11.584C69.9453 11.4277 69.7148 11.2383 69.5508 11.0156C69.3906 10.793 69.3105 10.5039 69.3105 10.1484C69.3105 9.60547 69.5293 9.18945 69.9668 8.90039C70.4082 8.60742 70.9863 8.46094 71.7012 8.46094C72.0879 8.46094 72.4492 8.5 72.7852 8.57812C73.125 8.65234 73.4414 8.75391 73.7344 8.88281L73.4062 9.66211C73.1406 9.54883 72.8574 9.45312 72.5566 9.375C72.2559 9.29688 71.9492 9.25781 71.6367 9.25781C71.1875 9.25781 70.8418 9.33203 70.5996 9.48047C70.3613 9.62891 70.2422 9.83203 70.2422 10.0898C70.2422 10.2891 70.2969 10.4531 70.4062 10.582C70.5195 10.7109 70.6992 10.832 70.9453 10.9453C71.1914 11.0586 71.5156 11.1914 71.918 11.3438C72.3203 11.4922 72.668 11.6465 72.9609 11.8066C73.2539 11.9629 73.4785 12.1543 73.6348 12.3809C73.7949 12.6035 73.875 12.8906 73.875 13.2422ZM77.5137 14.3203C77.6738 14.3203 77.8379 14.3066 78.0059 14.2793C78.1738 14.252 78.3105 14.2188 78.416 14.1797V14.9355C78.3027 14.9863 78.1445 15.0293 77.9414 15.0645C77.7422 15.0996 77.5469 15.1172 77.3555 15.1172C77.0156 15.1172 76.707 15.0586 76.4297 14.9414C76.1523 14.8203 75.9297 14.6172 75.7617 14.332C75.5977 14.0469 75.5156 13.6523 75.5156 13.1484V9.33984H74.6016V8.86523L75.5215 8.48438L75.9082 7.08984H76.4941V8.57812H78.375V9.33984H76.4941V13.1191C76.4941 13.5215 76.5859 13.8223 76.7695 14.0215C76.957 14.2207 77.2051 14.3203 77.5137 14.3203Z"
      fill="#0d63fd"/>
</svg>
