<svg width="111" height="20" viewBox="0 0 111 20" fill="none" xmlns="http://www.w3.org/2000/svg">
<path d="M15.0532 9.90576C15.0532 11.9159 14.6667 13.5964 13.8936 14.9473C13.1286 16.29 12.0177 17.3032 10.561 17.9868C9.10433 18.6623 7.35059 19 5.2998 19H0.246094V1.15332H5.84912C7.72087 1.15332 9.3444 1.48698 10.7197 2.1543C12.0951 2.81348 13.1611 3.79411 13.918 5.09619C14.6748 6.39014 15.0532 7.99333 15.0532 9.90576ZM11.1226 10.0034C11.1226 8.68506 10.9272 7.6027 10.5366 6.75635C10.1541 5.90186 9.58447 5.27116 8.82764 4.86426C8.07894 4.45736 7.1512 4.25391 6.04443 4.25391H4.03027V15.875H5.65381C7.50114 15.875 8.8724 15.3826 9.76758 14.3979C10.6709 13.4132 11.1226 11.9484 11.1226 10.0034ZM24.0864 5.09619C25.3478 5.09619 26.4342 5.34033 27.3457 5.82861C28.2572 6.30876 28.9611 7.00863 29.4575 7.92822C29.9539 8.84782 30.2021 9.97087 30.2021 11.2974V13.104H21.4009C21.4416 14.1538 21.7549 14.9798 22.3408 15.582C22.9349 16.1761 23.7568 16.4731 24.8066 16.4731C25.6774 16.4731 26.4749 16.3836 27.1992 16.2046C27.9235 16.0256 28.6681 15.757 29.4331 15.3989V18.2798C28.7576 18.6134 28.0496 18.8576 27.3091 19.0122C26.5767 19.1668 25.6855 19.2441 24.6357 19.2441C23.2686 19.2441 22.056 18.9919 20.998 18.4873C19.9482 17.9827 19.1222 17.2137 18.52 16.1802C17.9259 15.1466 17.6289 13.8446 17.6289 12.2739C17.6289 10.6789 17.8975 9.35238 18.4346 8.29443C18.9798 7.22835 19.7367 6.43083 20.7051 5.90186C21.6735 5.36475 22.8006 5.09619 24.0864 5.09619ZM24.1108 7.74512C23.3866 7.74512 22.7843 7.97705 22.3042 8.44092C21.8322 8.90479 21.5596 9.63314 21.4863 10.626H26.7109C26.7028 10.0726 26.6011 9.58024 26.4058 9.14893C26.2186 8.71761 25.9338 8.37581 25.5513 8.12354C25.1769 7.87126 24.6968 7.74512 24.1108 7.74512ZM36.4766 19L31.2764 5.35254H35.1704L37.8071 13.1284C37.9536 13.5841 38.0675 14.0643 38.1489 14.5688C38.2384 15.0734 38.2995 15.5251 38.332 15.9238H38.4297C38.4541 15.4925 38.5111 15.0327 38.6006 14.5444C38.6982 14.0562 38.8244 13.5841 38.979 13.1284L41.6035 5.35254H45.4976L40.2974 19H36.4766ZM47.7559 19V1.15332H51.54V15.875H58.7788V19H47.7559ZM65.3218 5.35254V19H61.5986V5.35254H65.3218ZM63.4663 0.00585938C64.0197 0.00585938 64.4958 0.136068 64.8945 0.396484C65.2933 0.648763 65.4927 1.12484 65.4927 1.82471C65.4927 2.51644 65.2933 2.99658 64.8945 3.26514C64.4958 3.52555 64.0197 3.65576 63.4663 3.65576C62.9048 3.65576 62.4246 3.52555 62.0259 3.26514C61.6353 2.99658 61.4399 2.51644 61.4399 1.82471C61.4399 1.12484 61.6353 0.648763 62.0259 0.396484C62.4246 0.136068 62.9048 0.00585938 63.4663 0.00585938ZM76.9917 5.09619C78.4484 5.09619 79.6203 5.49495 80.5073 6.29248C81.3944 7.08187 81.8379 8.3514 81.8379 10.1011V19H78.1147V11.0288C78.1147 10.0522 77.9357 9.31576 77.5776 8.81934C77.2277 8.32292 76.6743 8.07471 75.9175 8.07471C74.7782 8.07471 74.001 8.46126 73.5859 9.23438C73.1709 10.0075 72.9634 11.1224 72.9634 12.5791V19H69.2402V5.35254H72.0845L72.585 7.09814H72.7925C73.0854 6.62614 73.4476 6.24365 73.8789 5.95068C74.3184 5.65771 74.8026 5.44206 75.3315 5.30371C75.8687 5.16536 76.422 5.09619 76.9917 5.09619ZM89.394 0.00585938V8.50195C89.394 9.01465 89.3737 9.52734 89.333 10.04C89.2923 10.5527 89.2476 11.0654 89.1987 11.5781H89.2476C89.4998 11.2201 89.7562 10.866 90.0166 10.5161C90.2852 10.1662 90.57 9.82845 90.8711 9.50293L94.6919 5.35254H98.8911L93.4712 11.2729L99.2207 19H94.9238L90.9932 13.4702L89.394 14.752V19H85.6709V0.00585938H89.394ZM110.695 14.9473C110.695 15.875 110.476 16.6603 110.036 17.3032C109.605 17.938 108.958 18.4222 108.095 18.7559C107.233 19.0814 106.158 19.2441 104.873 19.2441C103.92 19.2441 103.103 19.1831 102.419 19.061C101.743 18.939 101.06 18.7355 100.368 18.4507V15.3745C101.109 15.7082 101.902 15.9849 102.749 16.2046C103.603 16.4162 104.352 16.522 104.995 16.522C105.719 16.522 106.236 16.4162 106.545 16.2046C106.862 15.9849 107.021 15.7 107.021 15.3501C107.021 15.1222 106.956 14.9188 106.826 14.7397C106.704 14.5526 106.435 14.3451 106.02 14.1172C105.605 13.8812 104.954 13.576 104.067 13.2017C103.212 12.8436 102.508 12.4814 101.955 12.1152C101.41 11.749 101.003 11.3177 100.734 10.8213C100.474 10.3167 100.344 9.6779 100.344 8.90479C100.344 7.64339 100.832 6.69531 101.809 6.06055C102.793 5.41764 104.108 5.09619 105.751 5.09619C106.598 5.09619 107.403 5.18164 108.168 5.35254C108.942 5.52344 109.735 5.79606 110.549 6.17041L109.426 8.85596C108.75 8.56299 108.111 8.32292 107.509 8.13574C106.915 7.94857 106.309 7.85498 105.69 7.85498C105.145 7.85498 104.734 7.92822 104.458 8.07471C104.181 8.22119 104.042 8.44499 104.042 8.74609C104.042 8.96582 104.112 9.16113 104.25 9.33203C104.396 9.50293 104.673 9.69417 105.08 9.90576C105.495 10.1092 106.101 10.3737 106.899 10.6992C107.672 11.0166 108.343 11.3503 108.913 11.7002C109.483 12.042 109.922 12.4692 110.231 12.9819C110.541 13.4865 110.695 14.1416 110.695 14.9473Z" fill="#213555"/>
</svg>
